<svg xmlns="http://www.w3.org/2000/svg" viewBox="0 0 128 128" id="shop"><path fill="#505070" d="M106.456 120H21.544a10.033 10.033 0 0 1-7.3-3.165 10.038 10.038 0 0 1-2.68-7.491l3.947-60c.346-5.24 4.73-9.344 9.98-9.344h77.018c5.25 0 9.634 4.104 9.979 9.343l3.947 60.001a10.034 10.034 0 0 1-2.68 7.491 10.029 10.029 0 0 1-7.299 3.165zM25.491 44a6.015 6.015 0 0 0-5.987 5.606l-3.947 59.999a5.941 5.941 0 0 0 1.606 4.495 5.942 5.942 0 0 0 4.381 1.899h84.912a5.948 5.948 0 0 0 4.381-1.899 5.939 5.939 0 0 0 1.606-4.495l-3.947-60A6.014 6.014 0 0 0 102.509 44H25.491z"></path><path fill="#505070" d="M97 56a2 2 0 0 1-2-2v-4.5C95 28.271 81.094 11 64 11S33 28.271 33 49.5V54a2 2 0 0 1-4 0v-4.5C29 26.065 44.701 7 64 7s35 19.065 35 42.5V54a2 2 0 0 1-2 2z"></path></svg>